<svg xmlns="http://www.w3.org/2000/svg" viewBox="0 0 47.31 84.11"><defs><style>.cls-1,.cls-2{fill:#f15a29;}.cls-1,.cls-3,.cls-5,.cls-6{fill-rule:evenodd;}.cls-3,.cls-4{fill:#8b5e3c;}.cls-5{fill:#f8c460;}.cls-6{fill:#f2d3a5;}</style></defs><g id="Layer_2" data-name="Layer 2"><g id="Layer_1-2" data-name="Layer 1"><path class="cls-1" d="M29.46,7.91H46V1.28H29.46a10,10,0,0,0-9.95,10v7h6.63v-7a3.35,3.35,0,0,1,3.32-3.32Z"/><rect class="cls-2" x="19.51" y="18.19" width="6.63" height="21.55"/><path class="cls-3" d="M9.57,33.1H7.91a6.66,6.66,0,0,0-6.63,6.63H19.51V18.19H9.57a1.66,1.66,0,0,0-1.66,1.66v5a1.66,1.66,0,0,0,1.66,1.65Z"/><path class="cls-3" d="M26.14,18.19V39.73H44.37a6.65,6.65,0,0,0-6.63-6.63H36.09V26.47a1.65,1.65,0,0,0,1.65-1.65v-5a1.65,1.65,0,0,0-1.65-1.66Z"/><rect class="cls-4" x="26.14" y="26.47" width="9.94" height="6.63"/><path class="cls-5" d="M44.37,39.73H1.28V76.2a6.65,6.65,0,0,0,6.63,6.62H37.74a6.64,6.64,0,0,0,6.63-6.62ZM27.54,47.06a1.65,1.65,0,0,1,2.26.6l3.32,5.74a1.68,1.68,0,0,1-.61,2.27L26.77,59a1.66,1.66,0,0,1-2.27-.6l-3.31-5.75a1.66,1.66,0,0,1,.61-2.26ZM14,65.78h6.63a1.66,1.66,0,0,1,1.65,1.66v6.63a1.65,1.65,0,0,1-1.65,1.65H14a1.65,1.65,0,0,1-1.66-1.65V67.44A1.66,1.66,0,0,1,14,65.78Z"/><path class="cls-6" d="M33.12,53.4,29.8,47.66a1.65,1.65,0,0,0-2.26-.6L21.8,50.37a1.66,1.66,0,0,0-.61,2.26l3.31,5.75a1.66,1.66,0,0,0,2.27.6l5.74-3.31a1.68,1.68,0,0,0,.61-2.27Z"/><path class="cls-6" d="M20.61,65.78H14a1.66,1.66,0,0,0-1.66,1.66v6.63A1.65,1.65,0,0,0,14,75.72h6.63a1.65,1.65,0,0,0,1.65-1.65V67.44a1.66,1.66,0,0,0-1.65-1.66Z"/><path d="M20.61,64.5H14A2.94,2.94,0,0,0,11,67.44v6.63A2.94,2.94,0,0,0,14,77h6.63a2.94,2.94,0,0,0,2.94-2.94V67.44A2.94,2.94,0,0,0,20.61,64.5ZM21,74.44H13.6V67.06H21Z"/><path d="M19.79,51a2.92,2.92,0,0,0,.29,2.24L23.39,59a3,3,0,0,0,2.55,1.47,2.92,2.92,0,0,0,1.47-.4l5.74-3.31a3,3,0,0,0,1.08-4L30.91,47a2.93,2.93,0,0,0-2.55-1.47,2.82,2.82,0,0,0-1.46.4l-5.75,3.31A2.94,2.94,0,0,0,19.79,51ZM28.5,48l3.69,6.39L25.8,58.06l-3.69-6.39Z"/><path d="M43.09,56.9V74.44H37.46a1.29,1.29,0,1,0,0,2.57h5.59l-.11.46a5.36,5.36,0,0,1-5.2,4.07H7.91A5.35,5.35,0,0,1,2.56,76.2V39.73a5.35,5.35,0,0,1,5.35-5.34H18.23v4.06h-2a1.29,1.29,0,0,0,0,2.57H43.09v3.25a1.28,1.28,0,0,0,1.28,1.28h0a1.28,1.28,0,0,0,1.29-1.28V39.73a7.92,7.92,0,0,0-7.92-7.91h-.37V27.47l.2-.12A2.93,2.93,0,0,0,39,24.82v-5a2.94,2.94,0,0,0-2.94-2.93H27.42V11.23a2.07,2.07,0,0,1,2-2H46a1.28,1.28,0,0,0,1.28-1.28V1.28A1.28,1.28,0,0,0,46,0H29.46A11.25,11.25,0,0,0,18.23,11.23v5.68H9.57a2.94,2.94,0,0,0-2.94,2.94v5a2.91,2.91,0,0,0,1.46,2.53l.2.12v4.35H7.91A7.91,7.91,0,0,0,0,39.73V76.2a7.91,7.91,0,0,0,7.91,7.91H37.74a7.92,7.92,0,0,0,7.92-7.91V56.9a1.28,1.28,0,0,0-1.29-1.28h0A1.28,1.28,0,0,0,43.09,56.9ZM37.74,34.39a5.35,5.35,0,0,1,5,3.56l.18.5H27.42V34.39ZM27.42,31.82V27.76H34.8v4.06Zm9-12.35v5.72h-9V19.47ZM20.79,11.23a8.69,8.69,0,0,1,8.67-8.66H44.75V6.63H29.46a4.61,4.61,0,0,0-4.6,4.6v5.68H20.79Zm0,8.24h4.07v5.72H20.79Zm0,8.29h4.07v4.06H20.79Zm0,6.63h4.07v4.06H20.79Zm-2.56-2.57H10.85V27.76h7.38Zm0-12.35v5.72h-9V19.47Z"/></g></g></svg>